<svg xmlns="http://www.w3.org/2000/svg" xmlns:xlink="http://www.w3.org/1999/xlink" width="500" zoomAndPan="magnify" viewBox="0 0 375 374.999991" height="500" preserveAspectRatio="xMidYMid meet" version="1.0"><defs><g/><clipPath id="e60a79e818"><path d="M 71.390625 154 L 303.890625 154 L 303.890625 209.628906 L 71.390625 209.628906 Z M 71.390625 154 " clip-rule="nonzero"/></clipPath></defs><path fill="#161616" d="M 126.304688 112.925781 L 115 115.714844 C 111.1875 116.65625 107.820312 118.890625 105.476562 122.039062 L 96.300781 134.355469 L 122.476562 134.355469 Z M 126.304688 112.925781 " fill-opacity="1" fill-rule="nonzero"/><path fill="#161616" d="M 148.011719 109.738281 L 129.117188 112.484375 L 126.304688 134.355469 L 150.871094 134.355469 C 148.632812 134.296875 141.6875 132.003906 145.933594 127.351562 C 150.183594 122.703125 158.277344 124.367188 162.066406 126.492188 C 165.855469 128.613281 163.269531 131.773438 163.269531 131.773438 L 164.648438 134.355469 L 170.214844 134.355469 L 158.304688 114.605469 C 156.167969 111.0625 152.109375 109.140625 148.011719 109.738281 Z M 148.011719 109.738281 " fill-opacity="1" fill-rule="nonzero"/><path fill="#161616" d="M 164.039062 137.113281 L 161.625 131.527344 C 161.625 131.527344 154.125 133.097656 148.003906 131.871094 C 148.003906 131.871094 152.863281 134.472656 160.136719 133.402344 L 162.316406 136.539062 L 160.898438 139.066406 Z M 164.039062 137.113281 " fill-opacity="1" fill-rule="nonzero"/><path fill="#161616" d="M 176.363281 134.359375 L 254.585938 134.359375 C 254.585938 134.359375 232.851562 116.75 228.335938 113.6875 C 223.816406 110.632812 218.460938 109.867188 211.570312 110.472656 C 204.683594 111.089844 164.425781 110.824219 164.425781 110.824219 C 164.425781 110.824219 160.898438 107.304688 157.765625 106.921875 C 157.761719 106.917969 166.414062 111.855469 176.363281 134.359375 Z M 242.800781 132.367188 L 214.941406 132.367188 L 206.523438 115.832031 C 206.523438 115.832031 225.808594 110.632812 242.800781 132.367188 Z M 242.800781 132.367188 " fill-opacity="1" fill-rule="nonzero"/><path fill="#161616" d="M 215.246094 108.105469 L 163.121094 106.496094 L 164.882812 108.105469 Z M 215.246094 108.105469 " fill-opacity="1" fill-rule="nonzero"/><path fill="#161616" d="M 153.859375 106.496094 C 153.859375 106.496094 138.703125 103.128906 116.660156 113.347656 C 116.660156 113.347656 139.855469 106.351562 153.859375 106.496094 Z M 153.859375 106.496094 " fill-opacity="1" fill-rule="nonzero"/><path fill="#161616" d="M 225.136719 146.882812 C 222.804688 144.308594 219.519531 142.800781 216.042969 142.710938 L 193.933594 142.128906 L 191.972656 140.023438 L 174.0625 140.023438 L 190.597656 141.246094 L 194.578125 145.535156 L 197.777344 150.511719 C 200.082031 154.097656 204.027344 156.289062 208.289062 156.355469 L 229.542969 156.6875 C 230.46875 156.703125 231.339844 157.144531 231.898438 157.886719 L 239.738281 168.34375 L 285.203125 168.34375 C 288.113281 164.210938 287.808594 156.863281 287.808594 156.863281 L 293.75 156.863281 C 294.722656 156.863281 295.464844 155.988281 295.300781 155.023438 L 293.988281 147.324219 L 293.800781 144.734375 L 291.921875 145 C 290.511719 145.199219 289.332031 146.171875 288.867188 147.519531 L 288.855469 147.554688 L 287.5 147.832031 C 263.828125 148.640625 241.691406 147.882812 225.136719 146.882812 Z M 225.136719 146.882812 " fill-opacity="1" fill-rule="nonzero"/><path fill="#161616" d="M 284.78125 170.179688 L 242.84375 170.179688 C 242.8125 170.179688 242.785156 170.179688 242.753906 170.175781 L 209.238281 166.117188 C 208.902344 166.078125 208.578125 166.277344 208.464844 166.597656 L 204.355469 178.242188 C 204.203125 178.667969 204.476562 179.128906 204.921875 179.203125 L 212.003906 180.382812 C 212.214844 180.417969 212.425781 180.359375 212.589844 180.226562 L 223.703125 171.011719 C 223.867188 170.871094 224.09375 170.816406 224.304688 170.859375 L 235.207031 173.011719 C 235.738281 173.117188 235.972656 173.746094 235.636719 174.175781 L 230.230469 181.089844 C 229.984375 181.40625 230.039062 181.863281 230.355469 182.109375 L 234.492188 185.335938 C 234.617188 185.4375 234.777344 185.492188 234.9375 185.492188 L 288.167969 185.492188 C 288.617188 185.492188 288.960938 185.085938 288.886719 184.644531 L 288.652344 183.234375 C 288.601562 182.933594 288.746094 182.636719 289.007812 182.484375 L 291.113281 181.28125 C 291.476562 181.074219 291.589844 180.601562 291.359375 180.253906 L 286.855469 173.375 C 286.542969 172.890625 286.886719 172.25 287.464844 172.25 L 290.71875 172.25 C 290.996094 172.25 291.25 172.40625 291.371094 172.65625 L 294.03125 178.042969 C 294.15625 178.289062 294.40625 178.449219 294.683594 178.449219 L 296.566406 178.449219 C 296.96875 178.449219 297.292969 178.121094 297.292969 177.722656 L 297.292969 167.054688 C 297.292969 166.558594 296.808594 166.207031 296.335938 166.363281 L 285.007812 170.140625 C 284.933594 170.167969 284.859375 170.179688 284.78125 170.179688 Z M 240.3125 171.480469 L 282.75 171.480469 C 282.992188 171.480469 283.21875 171.601562 283.351562 171.800781 L 284.429688 173.402344 L 240.273438 174.066406 C 240.335938 173.875 240.316406 173.664062 240.210938 173.484375 L 239.679688 172.574219 C 239.402344 172.085938 239.75 171.480469 240.3125 171.480469 Z M 288.125 180.289062 L 286.300781 181.339844 C 285.980469 181.519531 285.847656 181.917969 285.996094 182.253906 C 286.203125 182.734375 285.847656 183.265625 285.328125 183.265625 L 237.117188 183.265625 C 236.847656 183.265625 236.597656 183.117188 236.472656 182.878906 L 236.019531 182.019531 C 235.902344 181.796875 235.910156 181.527344 236.039062 181.3125 L 237.769531 178.371094 L 287.769531 178.371094 L 288.363281 179.253906 C 288.601562 179.601562 288.492188 180.078125 288.125 180.289062 Z M 288.125 180.289062 " fill-opacity="1" fill-rule="nonzero"/><g clip-path="url(#e60a79e818)"><path fill="#161616" d="M 303.574219 207.496094 L 283.136719 203.015625 C 290.027344 199.6875 289.910156 191.648438 289.910156 191.648438 C 296.914062 189.125 298.332031 182.617188 298.332031 182.617188 L 290.214844 183.269531 L 289.949219 187.476562 L 233.460938 187.476562 L 227.339844 183.269531 L 198.558594 183.269531 L 200.699219 184.695312 C 200.257812 188.117188 197.527344 202.371094 182.484375 204.144531 L 181.347656 204.085938 C 198.125 200.992188 198.554688 183.269531 198.554688 183.269531 L 191.359375 164.207031 C 191.359375 164.207031 187.152344 156.785156 183.019531 155.40625 C 178.886719 154.027344 170.464844 155.789062 167.632812 163.980469 C 164.804688 172.167969 164.648438 183.265625 164.648438 183.265625 L 113.902344 181.933594 C 113.902344 181.933594 111.492188 164.609375 104.085938 158.179688 C 96.679688 151.75 89.621094 160.761719 89.21875 170.292969 L 88.300781 170.292969 L 87.382812 156.914062 C 87.382812 156.914062 86.636719 172.585938 86.921875 178.042969 C 87.210938 183.496094 92.03125 185.847656 92.03125 185.847656 L 92.035156 185.832031 C 92.035156 185.835938 92.03125 185.84375 92.03125 185.851562 C 90.710938 199.113281 98.65625 204.3125 98.65625 204.3125 L 71.421875 208.414062 L 107.816406 207.609375 L 107.839844 207.59375 L 107.816406 207.609375 L 186.808594 209.101562 L 190.433594 209.183594 L 190.367188 209.214844 L 194.980469 209.285156 L 198.558594 209.367188 L 198.625 209.339844 L 200.242188 209.367188 Z M 194.214844 178.648438 C 191.820312 179.980469 186.054688 180.449219 184.347656 180.558594 C 184.261719 180.136719 184.121094 179.734375 183.925781 179.371094 C 184.429688 175.199219 187.914062 172.429688 190.058594 171.101562 C 192.265625 172.914062 193.71875 175.609375 194.214844 178.648438 Z M 190.300781 191.578125 C 185.976562 191.019531 184.023438 185.972656 183.523438 184.433594 C 183.753906 184.09375 183.949219 183.722656 184.101562 183.316406 C 188.058594 182.964844 191.351562 185.03125 193.3125 186.6875 C 192.585938 188.5625 191.550781 190.214844 190.300781 191.578125 Z M 183.472656 168.765625 C 183.503906 171.277344 181.710938 175.613281 180.882812 177.476562 C 180.28125 177.472656 179.679688 177.632812 179.125 177.921875 C 177.109375 176.789062 176.179688 173.84375 175.765625 171.734375 C 178.019531 169.851562 180.738281 168.777344 183.472656 168.765625 Z M 171.234375 178.273438 C 171.320312 178.042969 171.40625 177.816406 171.5 177.59375 C 173.644531 176.609375 175.953125 179.632812 176.753906 180.820312 C 176.386719 181.988281 176.453125 183.179688 176.867188 184.160156 C 174.34375 186.21875 171.773438 185.214844 170.289062 184.265625 C 170.207031 182.316406 170.507812 180.277344 171.234375 178.273438 Z M 175.109375 193.917969 C 174.863281 190.839844 177.460938 187.308594 178.523438 186.007812 C 178.652344 186.074219 178.785156 186.136719 178.925781 186.1875 C 179.316406 186.328125 179.71875 186.390625 180.121094 186.390625 C 182.527344 188.917969 181.671875 193.484375 180.988281 195.875 C 179.855469 195.859375 178.722656 195.660156 177.625 195.257812 C 176.707031 194.921875 175.871094 194.46875 175.109375 193.917969 Z M 94.378906 186.640625 C 94.378906 179.132812 98.015625 173.050781 102.503906 173.050781 C 102.65625 173.050781 102.792969 173.050781 102.9375 173.066406 C 98.652344 173.441406 95.242188 179.371094 95.242188 186.640625 C 95.242188 193.902344 98.652344 199.832031 102.9375 200.210938 C 102.792969 200.222656 102.65625 200.230469 102.503906 200.230469 C 98.015625 200.230469 94.378906 194.148438 94.378906 186.640625 Z M 96.335938 186.511719 C 96.335938 185.074219 96.503906 183.707031 96.808594 182.457031 C 97.75 182.410156 99.382812 184.207031 100.101562 185.707031 C 100.085938 185.796875 100.070312 185.886719 100.058594 185.976562 C 99.96875 186.605469 99.988281 187.203125 100.082031 187.734375 C 99.296875 188.414062 97.496094 188.632812 96.46875 188.707031 C 96.382812 187.996094 96.335938 187.265625 96.335938 186.511719 Z M 102.855469 175.871094 C 103.03125 177.519531 102.277344 181.230469 101.917969 182.859375 C 101.65625 182.957031 101.40625 183.136719 101.175781 183.382812 C 99.90625 182.472656 99.050781 179.722656 98.667969 178.25 C 99.757812 176.757812 101.144531 175.863281 102.65625 175.863281 C 102.71875 175.863281 102.789062 175.867188 102.855469 175.871094 Z M 98.589844 194.660156 C 98.617188 193.019531 99.929688 189.976562 100.957031 189.449219 C 101.140625 189.59375 101.34375 189.691406 101.566406 189.722656 C 101.613281 189.726562 101.660156 189.726562 101.707031 189.726562 C 102.21875 190.9375 101.257812 195.015625 100.820312 196.703125 C 99.992188 196.28125 99.234375 195.578125 98.589844 194.660156 Z M 107.414062 193.5 C 106.03125 192.992188 103.097656 191.21875 102.207031 189.636719 C 102.921875 189.351562 103.566406 188.457031 103.886719 187.28125 C 105.816406 187.050781 107.722656 188.710938 108.679688 189.707031 C 108.414062 191.121094 107.976562 192.40625 107.414062 193.5 Z M 104.042969 184.957031 C 103.914062 184.054688 103.554688 183.328125 103.042969 182.988281 C 103.527344 181.15625 105.367188 178.933594 106.332031 177.863281 C 107.457031 179.230469 108.308594 181.207031 108.710938 183.503906 C 107.441406 184.121094 105.335938 185.03125 104.042969 184.957031 Z M 102.117188 202.25 C 110.996094 196.050781 111.300781 185.484375 110.152344 179.367188 C 108.34375 169.742188 101.734375 169.722656 101.734375 169.722656 C 108.773438 168.957031 113.671875 176.761719 111.683594 189.777344 C 109.808594 202.0625 102.117188 202.25 102.117188 202.25 Z M 117.691406 200.261719 C 119.347656 197.824219 120.058594 192.835938 120.261719 191.085938 L 165.28125 192.226562 C 165.28125 192.226562 168.550781 198.121094 170.273438 199.304688 Z M 170.277344 170.484375 C 170.277344 170.484375 173.375 165.789062 179.269531 163.660156 L 179.316406 165.097656 C 174.902344 167.019531 168.753906 171.679688 168.246094 183.265625 C 167.558594 198.953125 181.414062 200.792969 181.414062 200.792969 C 179.878906 201.632812 176.207031 200.640625 176.207031 200.640625 C 176.207031 200.640625 159.0625 191.992188 170.277344 170.484375 Z M 170.277344 170.484375 " fill-opacity="1" fill-rule="nonzero"/></g><path fill="#161616" d="M 282.03125 143.703125 C 280.195312 144.046875 232.160156 144.003906 232.160156 144.003906 L 233.15625 145.382812 L 283.519531 145.382812 C 281.910156 136.65625 268.554688 136.425781 268.554688 136.425781 C 282.527344 138.492188 282.03125 143.703125 282.03125 143.703125 Z M 282.03125 143.703125 " fill-opacity="1" fill-rule="nonzero"/><path fill="#161616" d="M 101.734375 149.054688 C 129.179688 151.695312 172.570312 150.777344 172.570312 150.777344 C 153.859375 148.59375 101.734375 149.054688 101.734375 149.054688 Z M 101.734375 149.054688 " fill-opacity="1" fill-rule="nonzero"/><g fill="#161616" fill-opacity="1"><g transform="translate(155.149682, 245.952867)"><g><path d="M -2.3125 0 L 5.296875 -32.984375 L 15.34375 -32.984375 L 13.46875 -12.859375 L 20.875 -32.984375 L 31.015625 -32.984375 L 23.40625 0 L 17.390625 0 L 22.875 -23.765625 L 13.578125 0 L 7.671875 0 L 9.125 -23.765625 L 3.640625 0 Z M -2.3125 0 "/></g></g></g><g fill="#161616" fill-opacity="1"><g transform="translate(202.700211, 245.952867)"><g><path d="M 1.65625 0 L 4.140625 -10.859375 L 4 -32.984375 L 10.515625 -32.984375 L 9.796875 -21.8125 L 14.203125 -32.984375 L 20.734375 -32.984375 L 10.359375 -10.859375 L 7.875 0 Z M 1.65625 0 "/></g></g></g><path stroke-linecap="butt" transform="matrix(0.75, -0.000000000000000093, 0.000000000000000093, 0.75, 69.561254, 207.082662)" fill="none" stroke-linejoin="miter" d="M 0.00166089 1.49916 L 314.501682 1.49916 " stroke="#161616" stroke-width="3" stroke-opacity="1" stroke-miterlimit="4"/><path stroke-linecap="butt" transform="matrix(0.75, 0, 0, 0.75, 69.561254, 269.586429)" fill="none" stroke-linejoin="miter" d="M 0.00166089 1.499345 L 314.501682 1.499345 " stroke="#161616" stroke-width="3" stroke-opacity="1" stroke-miterlimit="4"/><g fill="#161616" fill-opacity="1"><g transform="translate(79.972351, 261.418007)"><g><path d="M 1.546875 0.09375 C 0.847656 0.09375 0.335938 -0.125 0.015625 -0.5625 C -0.304688 -1.007812 -0.378906 -1.613281 -0.203125 -2.375 L 0.8125 -6.796875 C 1.039062 -7.753906 1.398438 -8.472656 1.890625 -8.953125 C 2.378906 -9.441406 3.03125 -9.6875 3.84375 -9.6875 C 4.550781 -9.6875 5.078125 -9.492188 5.421875 -9.109375 C 5.765625 -8.722656 5.851562 -8.160156 5.6875 -7.421875 L 5.296875 -5.78125 L 3.390625 -5.78125 L 3.71875 -7.1875 C 3.78125 -7.46875 3.789062 -7.660156 3.75 -7.765625 C 3.707031 -7.867188 3.609375 -7.921875 3.453125 -7.921875 C 3.273438 -7.921875 3.140625 -7.859375 3.046875 -7.734375 C 2.953125 -7.617188 2.878906 -7.445312 2.828125 -7.21875 L 1.71875 -2.40625 C 1.664062 -2.144531 1.660156 -1.957031 1.703125 -1.84375 C 1.742188 -1.726562 1.84375 -1.671875 2 -1.671875 C 2.289062 -1.671875 2.492188 -1.914062 2.609375 -2.40625 L 3.015625 -4.140625 L 4.9375 -4.140625 L 4.53125 -2.328125 C 4.15625 -0.710938 3.160156 0.09375 1.546875 0.09375 Z M 1.546875 0.09375 "/></g></g></g><g fill="#161616" fill-opacity="1"><g transform="translate(92.986654, 261.418007)"><g><path d="M -0.921875 0 L 2.21875 -9.59375 L 5.46875 -9.59375 L 4.171875 0 L 2.34375 0 L 2.578125 -1.546875 L 1.40625 -1.546875 L 0.9375 0 Z M 1.921875 -3.078125 L 2.78125 -3.078125 L 3.484375 -7.96875 L 3.390625 -7.96875 Z M 1.921875 -3.078125 "/></g></g></g><g fill="#161616" fill-opacity="1"><g transform="translate(106.123842, 261.418007)"><g><path d="M 1.546875 -9.59375 L 4.5 -9.59375 C 4.96875 -9.59375 5.304688 -9.484375 5.515625 -9.265625 C 5.722656 -9.054688 5.828125 -8.757812 5.828125 -8.375 C 5.828125 -8 5.757812 -7.515625 5.625 -6.921875 C 5.5 -6.367188 5.328125 -5.941406 5.109375 -5.640625 C 4.898438 -5.335938 4.609375 -5.125 4.234375 -5 C 4.503906 -4.945312 4.675781 -4.800781 4.75 -4.5625 C 4.832031 -4.332031 4.828125 -4.019531 4.734375 -3.625 L 3.875 0 L 2 0 L 2.859375 -3.75 C 2.929688 -4.019531 2.921875 -4.191406 2.828125 -4.265625 C 2.742188 -4.335938 2.5625 -4.375 2.28125 -4.375 L 1.28125 0 L -0.671875 0 Z M 3.140625 -6.046875 C 3.410156 -6.046875 3.613281 -6.335938 3.75 -6.921875 C 3.8125 -7.171875 3.84375 -7.359375 3.84375 -7.484375 C 3.84375 -7.609375 3.816406 -7.691406 3.765625 -7.734375 C 3.722656 -7.785156 3.644531 -7.8125 3.53125 -7.8125 L 3.09375 -7.8125 L 2.6875 -6.046875 Z M 3.140625 -6.046875 "/></g></g></g><g fill="#161616" fill-opacity="1"><g transform="translate(119.171669, 261.418007)"><g/></g></g><g fill="#161616" fill-opacity="1"><g transform="translate(129.504902, 261.418007)"><g><path d="M 1.546875 -9.59375 L 4.5 -9.59375 C 4.96875 -9.59375 5.304688 -9.484375 5.515625 -9.265625 C 5.722656 -9.054688 5.828125 -8.757812 5.828125 -8.375 C 5.828125 -8 5.757812 -7.515625 5.625 -6.921875 C 5.5 -6.367188 5.328125 -5.941406 5.109375 -5.640625 C 4.898438 -5.335938 4.609375 -5.125 4.234375 -5 C 4.503906 -4.945312 4.675781 -4.800781 4.75 -4.5625 C 4.832031 -4.332031 4.828125 -4.019531 4.734375 -3.625 L 3.875 0 L 2 0 L 2.859375 -3.75 C 2.929688 -4.019531 2.921875 -4.191406 2.828125 -4.265625 C 2.742188 -4.335938 2.5625 -4.375 2.28125 -4.375 L 1.28125 0 L -0.671875 0 Z M 3.140625 -6.046875 C 3.410156 -6.046875 3.613281 -6.335938 3.75 -6.921875 C 3.8125 -7.171875 3.84375 -7.359375 3.84375 -7.484375 C 3.84375 -7.609375 3.816406 -7.691406 3.765625 -7.734375 C 3.722656 -7.785156 3.644531 -7.8125 3.53125 -7.8125 L 3.09375 -7.8125 L 2.6875 -6.046875 Z M 3.140625 -6.046875 "/></g></g></g><g fill="#161616" fill-opacity="1"><g transform="translate(142.552728, 261.418007)"><g><path d="M -0.671875 0 L 1.546875 -9.59375 L 5.390625 -9.59375 L 4.96875 -7.734375 L 3.078125 -7.734375 L 2.640625 -5.875 L 4.453125 -5.875 L 4.03125 -4.0625 L 2.234375 -4.0625 L 1.71875 -1.859375 L 3.71875 -1.859375 L 3.296875 0 Z M -0.671875 0 "/></g></g></g><g fill="#161616" fill-opacity="1"><g transform="translate(154.874423, 261.418007)"><g><path d="M -0.671875 0 L 1.546875 -9.59375 L 3.53125 -9.59375 L 3.34375 -5 L 4.40625 -9.59375 L 6.265625 -9.59375 L 4.046875 0 L 2.171875 0 L 2.3125 -4.796875 L 1.21875 0 Z M -0.671875 0 "/></g></g></g><g fill="#161616" fill-opacity="1"><g transform="translate(168.15684, 261.418007)"><g><path d="M 0.140625 0 L 1.9375 -7.75 L 0.796875 -7.75 L 1.21875 -9.59375 L 5.421875 -9.59375 L 5 -7.75 L 3.859375 -7.75 L 2.0625 0 Z M 0.140625 0 "/></g></g></g><g fill="#161616" fill-opacity="1"><g transform="translate(180.299798, 261.418007)"><g><path d="M -0.921875 0 L 2.21875 -9.59375 L 5.46875 -9.59375 L 4.171875 0 L 2.34375 0 L 2.578125 -1.546875 L 1.40625 -1.546875 L 0.9375 0 Z M 1.921875 -3.078125 L 2.78125 -3.078125 L 3.484375 -7.96875 L 3.390625 -7.96875 Z M 1.921875 -3.078125 "/></g></g></g><g fill="#161616" fill-opacity="1"><g transform="translate(193.436986, 261.418007)"><g><path d="M -0.671875 0 L 1.546875 -9.59375 L 3.46875 -9.59375 L 1.640625 -1.625 L 3.609375 -1.625 L 3.234375 0 Z M -0.671875 0 "/></g></g></g><g fill="#161616" fill-opacity="1"><g transform="translate(205.591122, 261.418007)"><g/></g></g><g fill="#161616" fill-opacity="1"><g transform="translate(215.924362, 261.418007)"><g><path d="M 1.59375 0.09375 C 0.71875 0.09375 0.140625 -0.117188 -0.140625 -0.546875 C -0.429688 -0.984375 -0.460938 -1.679688 -0.234375 -2.640625 L -0.03125 -3.59375 L 1.859375 -3.59375 L 1.578125 -2.390625 C 1.460938 -1.910156 1.5625 -1.671875 1.875 -1.671875 C 2.039062 -1.671875 2.171875 -1.722656 2.265625 -1.828125 C 2.359375 -1.929688 2.429688 -2.097656 2.484375 -2.328125 C 2.554688 -2.640625 2.578125 -2.898438 2.546875 -3.109375 C 2.515625 -3.316406 2.457031 -3.488281 2.375 -3.625 C 2.300781 -3.757812 2.148438 -3.972656 1.921875 -4.265625 L 1.28125 -5.09375 C 0.789062 -5.71875 0.628906 -6.410156 0.796875 -7.171875 C 0.984375 -7.992188 1.3125 -8.617188 1.78125 -9.046875 C 2.257812 -9.472656 2.863281 -9.6875 3.59375 -9.6875 C 4.457031 -9.6875 5.023438 -9.457031 5.296875 -9 C 5.578125 -8.539062 5.597656 -7.820312 5.359375 -6.84375 L 3.40625 -6.84375 L 3.5625 -7.5 C 3.59375 -7.632812 3.582031 -7.738281 3.53125 -7.8125 C 3.476562 -7.882812 3.382812 -7.921875 3.25 -7.921875 C 3.101562 -7.921875 2.976562 -7.878906 2.875 -7.796875 C 2.78125 -7.710938 2.722656 -7.601562 2.703125 -7.46875 C 2.617188 -7.15625 2.722656 -6.828125 3.015625 -6.484375 L 3.875 -5.421875 C 4.082031 -5.160156 4.242188 -4.914062 4.359375 -4.6875 C 4.484375 -4.46875 4.5625 -4.203125 4.59375 -3.890625 C 4.625 -3.585938 4.59375 -3.222656 4.5 -2.796875 C 4.269531 -1.847656 3.925781 -1.128906 3.46875 -0.640625 C 3.007812 -0.148438 2.382812 0.09375 1.59375 0.09375 Z M 1.59375 0.09375 "/></g></g></g><g fill="#161616" fill-opacity="1"><g transform="translate(228.793443, 261.418007)"><g><path d="M -0.671875 0 L 1.546875 -9.59375 L 5.390625 -9.59375 L 4.96875 -7.734375 L 3.078125 -7.734375 L 2.640625 -5.875 L 4.453125 -5.875 L 4.03125 -4.0625 L 2.234375 -4.0625 L 1.71875 -1.859375 L 3.71875 -1.859375 L 3.296875 0 Z M -0.671875 0 "/></g></g></g><g fill="#161616" fill-opacity="1"><g transform="translate(241.115131, 261.418007)"><g><path d="M 1.546875 -9.59375 L 4.5 -9.59375 C 4.96875 -9.59375 5.304688 -9.484375 5.515625 -9.265625 C 5.722656 -9.054688 5.828125 -8.757812 5.828125 -8.375 C 5.828125 -8 5.757812 -7.515625 5.625 -6.921875 C 5.5 -6.367188 5.328125 -5.941406 5.109375 -5.640625 C 4.898438 -5.335938 4.609375 -5.125 4.234375 -5 C 4.503906 -4.945312 4.675781 -4.800781 4.75 -4.5625 C 4.832031 -4.332031 4.828125 -4.019531 4.734375 -3.625 L 3.875 0 L 2 0 L 2.859375 -3.75 C 2.929688 -4.019531 2.921875 -4.191406 2.828125 -4.265625 C 2.742188 -4.335938 2.5625 -4.375 2.28125 -4.375 L 1.28125 0 L -0.671875 0 Z M 3.140625 -6.046875 C 3.410156 -6.046875 3.613281 -6.335938 3.75 -6.921875 C 3.8125 -7.171875 3.84375 -7.359375 3.84375 -7.484375 C 3.84375 -7.609375 3.816406 -7.691406 3.765625 -7.734375 C 3.722656 -7.785156 3.644531 -7.8125 3.53125 -7.8125 L 3.09375 -7.8125 L 2.6875 -6.046875 Z M 3.140625 -6.046875 "/></g></g></g><g fill="#161616" fill-opacity="1"><g transform="translate(254.162965, 261.418007)"><g><path d="M 0.203125 0 L 1.234375 -9.609375 L 3.0625 -9.609375 L 2.25 -3.078125 L 4.390625 -9.609375 L 6.21875 -9.609375 L 2.828125 0 Z M 0.203125 0 "/></g></g></g><g fill="#161616" fill-opacity="1"><g transform="translate(267.121422, 261.418007)"><g><path d="M -0.75 0 L 1.453125 -9.59375 L 3.3125 -9.59375 L 1.09375 0 Z M -0.75 0 "/></g></g></g><g fill="#161616" fill-opacity="1"><g transform="translate(277.376465, 261.418007)"><g><path d="M 1.546875 0.09375 C 0.847656 0.09375 0.335938 -0.125 0.015625 -0.5625 C -0.304688 -1.007812 -0.378906 -1.613281 -0.203125 -2.375 L 0.8125 -6.796875 C 1.039062 -7.753906 1.398438 -8.472656 1.890625 -8.953125 C 2.378906 -9.441406 3.03125 -9.6875 3.84375 -9.6875 C 4.550781 -9.6875 5.078125 -9.492188 5.421875 -9.109375 C 5.765625 -8.722656 5.851562 -8.160156 5.6875 -7.421875 L 5.296875 -5.78125 L 3.390625 -5.78125 L 3.71875 -7.1875 C 3.78125 -7.46875 3.789062 -7.660156 3.75 -7.765625 C 3.707031 -7.867188 3.609375 -7.921875 3.453125 -7.921875 C 3.273438 -7.921875 3.140625 -7.859375 3.046875 -7.734375 C 2.953125 -7.617188 2.878906 -7.445312 2.828125 -7.21875 L 1.71875 -2.40625 C 1.664062 -2.144531 1.660156 -1.957031 1.703125 -1.84375 C 1.742188 -1.726562 1.84375 -1.671875 2 -1.671875 C 2.289062 -1.671875 2.492188 -1.914062 2.609375 -2.40625 L 3.015625 -4.140625 L 4.9375 -4.140625 L 4.53125 -2.328125 C 4.15625 -0.710938 3.160156 0.09375 1.546875 0.09375 Z M 1.546875 0.09375 "/></g></g></g><g fill="#161616" fill-opacity="1"><g transform="translate(290.390775, 261.418007)"><g><path d="M -0.671875 0 L 1.546875 -9.59375 L 5.390625 -9.59375 L 4.96875 -7.734375 L 3.078125 -7.734375 L 2.640625 -5.875 L 4.453125 -5.875 L 4.03125 -4.0625 L 2.234375 -4.0625 L 1.71875 -1.859375 L 3.71875 -1.859375 L 3.296875 0 Z M -0.671875 0 "/></g></g></g></svg>