<svg xmlns="http://www.w3.org/2000/svg" xmlns:xlink="http://www.w3.org/1999/xlink" width="500" zoomAndPan="magnify" viewBox="0 0 375 374.999991" height="500" preserveAspectRatio="xMidYMid meet" version="1.0"><defs><g/><clipPath id="2546f67ec4"><path d="M 61.230469 155.941406 L 121 155.941406 L 121 215.941406 L 61.230469 215.941406 Z M 61.230469 155.941406 " clip-rule="nonzero"/></clipPath></defs><g clip-path="url(#2546f67ec4)"><path fill="#d9683b" d="M 102.414062 202.222656 L 116.058594 202.222656 C 110.503906 210.628906 101.21875 215.660156 91.125 215.660156 C 74.628906 215.660156 61.230469 202.257812 61.230469 185.800781 C 61.230469 169.339844 74.628906 155.941406 91.089844 155.941406 C 104.804688 155.941406 116.410156 165.226562 119.894531 177.851562 C 120.597656 180.382812 120.949219 183.023438 120.949219 185.800781 C 120.949219 186.46875 120.914062 187.136719 120.878906 187.804688 L 90.878906 187.804688 C 89.4375 189.597656 87.21875 190.722656 84.757812 190.722656 L 80.890625 190.722656 L 80.890625 187.382812 L 77.089844 187.382812 L 77.089844 184.605469 L 80.890625 184.605469 L 80.890625 181.085938 L 77.089844 181.085938 L 77.089844 178.308594 L 80.890625 178.308594 L 80.890625 174.933594 L 84.757812 174.933594 C 87.21875 174.933594 89.4375 176.058594 90.878906 177.851562 L 109.378906 177.851562 C 106.316406 170.78125 99.25 165.859375 91.089844 165.859375 C 80.082031 165.859375 71.148438 174.792969 71.148438 185.800781 C 71.148438 196.808594 80.082031 205.742188 91.089844 205.742188 C 95.203125 205.742188 99.109375 204.476562 102.414062 202.222656 Z M 102.414062 202.222656 " fill-opacity="1" fill-rule="nonzero"/></g><g fill="#3d4145" fill-opacity="1"><g transform="translate(120.955969, 211.180412)"><g><path d="M 4.46875 -26.84375 L 26.84375 -26.84375 L 26.84375 -18.375 L 4.46875 -18.375 Z M 4.46875 -26.84375 "/></g></g></g><g fill="#3d4145" fill-opacity="1"><g transform="translate(147.627251, 211.180412)"><g><path d="M 34 0.8125 C 28.25 0.8125 23.054688 -0.445312 18.421875 -2.96875 C 13.785156 -5.488281 10.148438 -8.972656 7.515625 -13.421875 C 4.890625 -17.867188 3.578125 -22.882812 3.578125 -28.46875 C 3.578125 -34.050781 4.90625 -39.0625 7.5625 -43.5 C 10.21875 -47.945312 13.863281 -51.429688 18.5 -53.953125 C 23.132812 -56.484375 28.328125 -57.75 34.078125 -57.75 C 38.742188 -57.75 43 -56.929688 46.84375 -55.296875 C 50.695312 -53.671875 53.953125 -51.316406 56.609375 -48.234375 L 49.765625 -41.796875 C 45.648438 -46.242188 40.582031 -48.46875 34.5625 -48.46875 C 30.65625 -48.46875 27.15625 -47.613281 24.0625 -45.90625 C 20.976562 -44.195312 18.566406 -41.820312 16.828125 -38.78125 C 15.097656 -35.75 14.234375 -32.3125 14.234375 -28.46875 C 14.234375 -24.613281 15.097656 -21.164062 16.828125 -18.125 C 18.566406 -15.09375 20.976562 -12.722656 24.0625 -11.015625 C 27.15625 -9.304688 30.65625 -8.453125 34.5625 -8.453125 C 40.582031 -8.453125 45.648438 -10.703125 49.765625 -15.203125 L 56.609375 -8.703125 C 53.953125 -5.609375 50.679688 -3.25 46.796875 -1.625 C 42.921875 0 38.65625 0.8125 34 0.8125 Z M 34 0.8125 "/></g></g></g><g fill="#3d4145" fill-opacity="1"><g transform="translate(202.110013, 211.180412)"><g><path d="M 44.5625 -13.171875 L 16.109375 -13.171875 L 10.484375 0 L -0.40625 0 L 25.21875 -56.9375 L 35.625 -56.9375 L 61.328125 0 L 50.265625 0 Z M 41.078125 -21.46875 L 30.328125 -46.359375 L 19.6875 -21.46875 Z M 41.078125 -21.46875 "/></g></g></g><g fill="#3d4145" fill-opacity="1"><g transform="translate(258.381798, 211.180412)"><g><path d="M 44.890625 0 L 33.265625 -16.671875 C 32.773438 -16.617188 32.039062 -16.59375 31.0625 -16.59375 L 18.21875 -16.59375 L 18.21875 0 L 7.640625 0 L 7.640625 -56.9375 L 31.0625 -56.9375 C 36 -56.9375 40.296875 -56.117188 43.953125 -54.484375 C 47.617188 -52.859375 50.425781 -50.523438 52.375 -47.484375 C 54.320312 -44.453125 55.296875 -40.847656 55.296875 -36.671875 C 55.296875 -32.390625 54.253906 -28.703125 52.171875 -25.609375 C 50.085938 -22.523438 47.09375 -20.222656 43.1875 -18.703125 L 56.28125 0 Z M 44.65625 -36.671875 C 44.65625 -40.304688 43.460938 -43.097656 41.078125 -45.046875 C 38.691406 -47.003906 35.191406 -47.984375 30.578125 -47.984375 L 18.21875 -47.984375 L 18.21875 -25.296875 L 30.578125 -25.296875 C 35.191406 -25.296875 38.691406 -26.285156 41.078125 -28.265625 C 43.460938 -30.242188 44.65625 -33.046875 44.65625 -36.671875 Z M 44.65625 -36.671875 "/></g></g></g><g fill="#f2efe9" fill-opacity="1"><g transform="translate(116.803256, 234.371016)"><g><path d="M 5.75 0.140625 C 4.78125 0.140625 3.898438 -0.0703125 3.109375 -0.5 C 2.328125 -0.925781 1.710938 -1.515625 1.265625 -2.265625 C 0.828125 -3.023438 0.609375 -3.875 0.609375 -4.8125 C 0.609375 -5.757812 0.832031 -6.609375 1.28125 -7.359375 C 1.726562 -8.117188 2.34375 -8.710938 3.125 -9.140625 C 3.914062 -9.566406 4.796875 -9.78125 5.765625 -9.78125 C 6.554688 -9.78125 7.273438 -9.640625 7.921875 -9.359375 C 8.578125 -9.085938 9.128906 -8.6875 9.578125 -8.15625 L 8.421875 -7.078125 C 7.722656 -7.828125 6.863281 -8.203125 5.84375 -8.203125 C 5.1875 -8.203125 4.597656 -8.054688 4.078125 -7.765625 C 3.554688 -7.484375 3.144531 -7.082031 2.84375 -6.5625 C 2.550781 -6.050781 2.40625 -5.46875 2.40625 -4.8125 C 2.40625 -4.164062 2.550781 -3.582031 2.84375 -3.0625 C 3.144531 -2.550781 3.554688 -2.148438 4.078125 -1.859375 C 4.597656 -1.578125 5.1875 -1.4375 5.84375 -1.4375 C 6.863281 -1.4375 7.722656 -1.816406 8.421875 -2.578125 L 9.578125 -1.46875 C 9.128906 -0.945312 8.578125 -0.546875 7.921875 -0.265625 C 7.265625 0.00390625 6.539062 0.140625 5.75 0.140625 Z M 5.75 0.140625 "/></g></g></g><g fill="#f2efe9" fill-opacity="1"><g transform="translate(137.825182, 234.371016)"><g><path d="M 5.796875 0.140625 C 4.816406 0.140625 3.929688 -0.0703125 3.140625 -0.5 C 2.347656 -0.925781 1.726562 -1.515625 1.28125 -2.265625 C 0.832031 -3.023438 0.609375 -3.875 0.609375 -4.8125 C 0.609375 -5.75 0.832031 -6.597656 1.28125 -7.359375 C 1.726562 -8.117188 2.347656 -8.710938 3.140625 -9.140625 C 3.929688 -9.566406 4.816406 -9.78125 5.796875 -9.78125 C 6.773438 -9.78125 7.660156 -9.566406 8.453125 -9.140625 C 9.242188 -8.710938 9.863281 -8.117188 10.3125 -7.359375 C 10.757812 -6.609375 10.984375 -5.757812 10.984375 -4.8125 C 10.984375 -3.875 10.757812 -3.023438 10.3125 -2.265625 C 9.863281 -1.515625 9.242188 -0.925781 8.453125 -0.5 C 7.660156 -0.0703125 6.773438 0.140625 5.796875 0.140625 Z M 5.796875 -1.4375 C 6.441406 -1.4375 7.019531 -1.578125 7.53125 -1.859375 C 8.039062 -2.148438 8.441406 -2.554688 8.734375 -3.078125 C 9.035156 -3.597656 9.1875 -4.175781 9.1875 -4.8125 C 9.1875 -5.457031 9.035156 -6.039062 8.734375 -6.5625 C 8.441406 -7.082031 8.039062 -7.484375 7.53125 -7.765625 C 7.019531 -8.054688 6.441406 -8.203125 5.796875 -8.203125 C 5.148438 -8.203125 4.570312 -8.054688 4.0625 -7.765625 C 3.550781 -7.484375 3.144531 -7.082031 2.84375 -6.5625 C 2.550781 -6.039062 2.40625 -5.457031 2.40625 -4.8125 C 2.40625 -4.175781 2.550781 -3.597656 2.84375 -3.078125 C 3.144531 -2.554688 3.550781 -2.148438 4.0625 -1.859375 C 4.570312 -1.578125 5.148438 -1.4375 5.796875 -1.4375 Z M 5.796875 -1.4375 "/></g></g></g><g fill="#f2efe9" fill-opacity="1"><g transform="translate(160.429279, 234.371016)"><g><path d="M 10.140625 0 L 10.125 -6.390625 L 6.96875 -1.09375 L 6.171875 -1.09375 L 3 -6.296875 L 3 0 L 1.296875 0 L 1.296875 -9.640625 L 2.765625 -9.640625 L 6.59375 -3.25 L 10.359375 -9.640625 L 11.828125 -9.640625 L 11.84375 0 Z M 10.140625 0 "/></g></g></g><g fill="#f2efe9" fill-opacity="1"><g transform="translate(184.588027, 234.371016)"><g><path d="M 5.265625 -9.640625 C 6.097656 -9.640625 6.820312 -9.5 7.4375 -9.21875 C 8.0625 -8.945312 8.535156 -8.550781 8.859375 -8.03125 C 9.191406 -7.519531 9.359375 -6.910156 9.359375 -6.203125 C 9.359375 -5.503906 9.191406 -4.894531 8.859375 -4.375 C 8.535156 -3.863281 8.0625 -3.46875 7.4375 -3.1875 C 6.820312 -2.914062 6.097656 -2.78125 5.265625 -2.78125 L 3.078125 -2.78125 L 3.078125 0 L 1.296875 0 L 1.296875 -9.640625 Z M 5.171875 -4.296875 C 5.953125 -4.296875 6.546875 -4.457031 6.953125 -4.78125 C 7.359375 -5.113281 7.5625 -5.585938 7.5625 -6.203125 C 7.5625 -6.816406 7.359375 -7.289062 6.953125 -7.625 C 6.546875 -7.957031 5.953125 -8.125 5.171875 -8.125 L 3.078125 -8.125 L 3.078125 -4.296875 Z M 5.171875 -4.296875 "/></g></g></g><g fill="#f2efe9" fill-opacity="1"><g transform="translate(205.596205, 234.371016)"><g><path d="M 7.546875 -2.234375 L 2.71875 -2.234375 L 1.78125 0 L -0.0625 0 L 4.265625 -9.640625 L 6.03125 -9.640625 L 10.375 0 L 8.5 0 Z M 6.953125 -3.640625 L 5.140625 -7.84375 L 3.328125 -3.640625 Z M 6.953125 -3.640625 "/></g></g></g><g fill="#f2efe9" fill-opacity="1"><g transform="translate(226.920811, 234.371016)"><g><path d="M 9.859375 -9.640625 L 9.859375 0 L 8.390625 0 L 3.0625 -6.53125 L 3.0625 0 L 1.296875 0 L 1.296875 -9.640625 L 2.765625 -9.640625 L 8.078125 -3.109375 L 8.078125 -9.640625 Z M 9.859375 -9.640625 "/></g></g></g><g fill="#f2efe9" fill-opacity="1"><g transform="translate(249.084651, 234.371016)"><g><path d="M 5.453125 -3.40625 L 5.453125 0 L 3.65625 0 L 3.65625 -3.375 L -0.125 -9.640625 L 1.796875 -9.640625 L 4.609375 -4.9375 L 7.46875 -9.640625 L 9.21875 -9.640625 Z M 5.453125 -3.40625 "/></g></g></g></svg>